<?xml version="1.0" encoding="UTF-8" standalone="no"?>
<!-- Created with Inkscape (http://www.inkscape.org/) -->

<svg
   xmlns:dc="http://purl.org/dc/elements/1.1/"
   xmlns:cc="http://creativecommons.org/ns#"
   xmlns:rdf="http://www.w3.org/1999/02/22-rdf-syntax-ns#"
   xmlns:svg="http://www.w3.org/2000/svg"
   xmlns="http://www.w3.org/2000/svg"
   xmlns:sodipodi="http://sodipodi.sourceforge.net/DTD/sodipodi-0.dtd"
   xmlns:inkscape="http://www.inkscape.org/namespaces/inkscape"
   width="120.70686mm"
   height="27.75136mm"
   viewBox="0 0 427.70143 98.33159"
   id="svg2"
   version="1.1"
   inkscape:version="0.91 r13725"
   sodipodi:docname="logo.svg">
  <defs
     id="defs4" />
  <sodipodi:namedview
     id="base"
     pagecolor="#ffffff"
     bordercolor="#666666"
     borderopacity="1.0"
     inkscape:pageopacity="0.0"
     inkscape:pageshadow="2"
     inkscape:zoom="2.8"
     inkscape:cx="227.89043"
     inkscape:cy="23.488232"
     inkscape:document-units="px"
     inkscape:current-layer="layer1"
     showgrid="false"
     fit-margin-top="0.5"
     fit-margin-left="0.5"
     fit-margin-right="0.5"
     fit-margin-bottom="0.5"
     inkscape:window-width="1920"
     inkscape:window-height="1125"
     inkscape:window-x="0"
     inkscape:window-y="0"
     inkscape:window-maximized="1" />
  <metadata
     id="metadata7">
    <rdf:RDF>
      <cc:Work
         rdf:about="">
        <dc:format>image/svg+xml</dc:format>
        <dc:type
           rdf:resource="http://purl.org/dc/dcmitype/StillImage" />
        <dc:title></dc:title>
        <dc:creator>
          <cc:Agent>
            <dc:title>Matt Williams</dc:title>
          </cc:Agent>
        </dc:creator>
      </cc:Work>
    </rdf:RDF>
  </metadata>
  <g
     inkscape:label="Layer 1"
     inkscape:groupmode="layer"
     id="layer1"
     transform="translate(-188.32753,-646.76197)">
    <g
       id="g4471">
      <path
         style="fill:#fece40;fill-opacity:1"
         d="m 197.00001,741.90717 c -3.34914,-1.57938 -5.30518,-3.44249 -6.26003,-5.96261 -0.42921,-1.13281 -0.63997,-14.4308 -0.63997,-40.3798 0,-42.0524 -0.14566,-40.18477 3.39643,-43.54931 3.66816,-3.48428 3.64413,-3.48183 34.10357,-3.48183 30.45943,0 30.43541,-0.002 34.10357,3.48183 3.54209,3.36454 3.39643,1.49691 3.39643,43.54931 0,25.949 -0.21076,39.24699 -0.63997,40.3798 -0.95485,2.52012 -2.91088,4.38323 -6.26003,5.96261 l -3,1.41473 -27.6,0 -27.6,0 -3,-1.41473 z m 36.00106,-64.21907 c 3.36148,-2.20253 4.52778,-8.04415 2.34894,-11.76511 -1.88188,-3.21382 -4.03038,-4.44651 -7.75,-4.44651 -3.71962,0 -5.86812,1.23269 -7.75,4.44651 -2.18743,3.73563 -1.01166,9.56316 2.37752,11.78383 3.15163,2.06504 7.60513,2.0573 10.77354,-0.0187 z m 67.54405,56.62862 c -9.64246,-2.02059 -16.58327,-5.97497 -19.63876,-11.18878 -3.00228,-5.123 -1.72177,-11.48584 3.17714,-15.78714 3.09595,-2.71828 9.83852,-5.7948 15.10574,-6.89247 6.34895,-1.32311 17.21808,-1.19224 23.36461,0.28134 8.68327,2.08173 15.16884,6.19306 17.55937,11.13124 1.04325,2.15505 1.27189,3.49011 1.07171,6.2576 -0.19114,2.6425 -0.6938,4.15395 -2.0197,6.07306 -2.31282,3.34757 -7.69356,6.77205 -13.71817,8.73069 -4.14381,1.34718 -6.1093,1.60302 -13.54705,1.7633 -4.785,0.10312 -9.8947,-0.0629 -11.35489,-0.36884 z m 18.22051,-6.85771 c 2.51414,-0.48104 6.18608,-1.59934 8.15986,-2.48511 3.98128,-1.7867 7.77452,-5.49893 7.77452,-7.6085 0,-1.49162 -1.37353,-3.74139 -3.28154,-5.375 -2.20593,-1.88867 -7.14339,-3.9325 -11.84316,-4.90238 -8.98035,-1.85327 -19.30209,-0.80249 -26.71404,2.71956 -3.94922,1.87661 -6.76126,4.81392 -6.76126,7.06247 0,2.14885 1.56239,4.54686 4.02362,6.17563 2.82839,1.87174 8.49203,3.97942 12.48803,4.64731 4.79314,0.80114 11.23126,0.70789 16.15397,-0.23398 z m 184.83438,6.5462 c -2.31,-0.49664 -6.40722,-1.97895 -9.10493,-3.29402 -9.28462,-4.52602 -13.00643,-11.41646 -9.87246,-18.27757 1.26384,-2.76691 5.51026,-6.88019 8.875,-8.59675 1.2743,-0.6501 4.33865,-1.81678 6.80965,-2.59263 3.95668,-1.24231 5.67398,-1.41062 14.39274,-1.41062 8.71876,0 10.43606,0.16831 14.39274,1.41062 5.93013,1.86194 8.562,3.25629 11.85748,6.282 3.19362,2.9322 4.92343,6.34281 4.92343,9.70738 0,6.89787 -6.95889,13.26279 -17.77684,16.25954 -5.01263,1.38857 -19.05465,1.68209 -24.49681,0.51205 z m 22.64761,-7.18519 c 7.57925,-1.93074 13.62284,-6.89784 12.74076,-10.47138 -0.8182,-3.31477 -5.53799,-6.64547 -12.28837,-8.67177 -1.815,-0.54482 -5.865,-1.14893 -9,-1.34247 -9.54689,-0.58937 -18.32033,1.42422 -23.52661,5.39958 -1.36831,1.0448 -2.82952,2.73834 -3.24715,3.76341 -0.64545,1.58429 -0.60687,2.16914 0.25722,3.9 1.81209,3.62979 8.11806,6.89393 16.13094,8.34981 4.18432,0.76026 14.24264,0.26769 18.93321,-0.92718 z M 300.20951,693.73796 c -5.30544,-1.13672 -11.86533,-4.1979 -15.16373,-7.07619 -3.72999,-3.2549 -5.62921,-6.84609 -5.98863,-11.32378 -0.23969,-2.98598 -0.0356,-4.36451 1.00408,-6.78125 1.62611,-3.77999 5.85507,-7.98345 10.44971,-10.38671 4.16953,-2.1809 7.24119,-2.40754 8.20564,-0.60546 1.31275,2.45291 0.49152,3.73509 -3.91657,6.11485 -2.31,1.24708 -5.05963,3.18599 -6.11029,4.30867 -1.05067,1.12269 -2.23377,3.12091 -2.62913,4.44051 -0.63985,2.13561 -0.56969,2.70733 0.63845,5.20302 1.75919,3.634 5.55038,6.37701 11.70097,8.46593 4.03688,1.37105 5.84929,1.63511 11.4,1.66097 7.04312,0.0328 11.27252,-0.87036 16.47437,-3.51805 3.55912,-1.81155 7.08284,-5.394 7.77645,-7.90604 0.75116,-2.72046 -0.19182,-5.82838 -2.54467,-8.38689 -1.04838,-1.14003 -3.93115,-3.07378 -6.40615,-4.29724 -3.8491,-1.9027 -4.5282,-2.47024 -4.69498,-3.92363 -0.11518,-1.00387 0.22977,-2.1685 0.843,-2.84611 0.93518,-1.03336 1.94051,-1.14694 10.15198,-1.14694 8.06752,0 9.22804,0.12599 10.10701,1.09724 0.54615,0.60349 0.99299,1.54849 0.99299,2.1 0,1.59409 -2.23243,3.40276 -4.2,3.40276 -0.99,0 -1.8,0.12711 -1.8,0.28246 0,0.15535 0.80192,1.43785 1.78204,2.85 2.27381,3.27609 3.30871,7.23731 2.79163,10.68541 -1.60811,10.72366 -14.97229,18.63901 -31.27367,18.5228 -2.97,-0.0212 -7.28573,-0.44252 -9.5905,-0.93633 z m 204.6414,0.0998 c -5.48925,-1.14448 -12.21166,-4.39805 -15.66607,-7.58221 -3.94563,-3.63696 -5.68812,-7.33967 -5.67165,-12.05202 0.0166,-4.72891 1.43893,-7.99347 4.9841,-11.43897 3.25369,-3.16222 9.21221,-6.43097 11.72287,-6.43097 1.30371,0 2.13753,0.43549 2.81578,1.47062 1.51714,2.31545 0.61059,3.74812 -3.7024,5.85104 -4.13891,2.01806 -8.34558,6.02214 -8.97923,8.54682 -0.64405,2.5661 0.30209,5.67979 2.44747,8.05447 3.78728,4.19207 10.52414,6.85684 19.22417,7.60415 5.11811,0.43963 12.7689,-0.84161 17.23502,-2.88627 3.70628,-1.69679 7.32664,-4.6963 8.56969,-7.1001 1.24642,-2.41031 1.06841,-5.30177 -0.48429,-7.86648 -1.61443,-2.66668 -4.4474,-4.88545 -8.64555,-6.77118 -3.64129,-1.6356 -4.78751,-3.24894 -3.7321,-5.25307 0.39102,-0.7425 1.00801,-1.54837 1.37111,-1.79081 0.3631,-0.24245 4.77146,-0.44495 9.79635,-0.45 8.94883,-0.009 9.15523,0.0199 10.06594,1.40982 0.68623,1.04733 0.78048,1.8117 0.35979,2.91817 -0.61831,1.62629 -1.74659,2.26282 -4.01097,2.26282 -0.79801,0 -1.44602,0.2025 -1.44001,0.45 0.006,0.2475 0.79594,1.60825 1.7554,3.02389 2.31663,3.41804 3.22182,7.70929 2.39986,11.37702 -0.79575,3.5508 -2.29605,5.98095 -5.52015,8.94142 -3.58472,3.2916 -6.04022,4.68039 -11.54603,6.53025 -3.88793,1.30629 -6.1681,1.65395 -12,1.82969 -4.75306,0.14322 -8.61008,-0.077 -11.3491,-0.6481 z m -157.28338,-1.16954 c -0.83255,-1.27063 -0.86789,-2.07399 -0.26588,-6.04544 1.40223,-9.2506 4.95265,-16.63329 10.85015,-22.56167 2.66992,-2.6839 5.29737,-4.62241 8.1,-5.97613 3.72522,-1.79933 4.79062,-2.02741 10.44821,-2.2367 5.29976,-0.19607 6.91556,-0.0253 10.1771,1.07531 5.31141,1.79242 8.70452,3.89161 12.62126,7.80836 5.42815,5.42815 9.31836,14.04067 10.50983,23.26767 0.51482,3.98692 -0.63606,6.13397 -3.288,6.13397 -2.19448,0 -3.62019,-1.89328 -3.62019,-4.80745 0,-1.17723 -0.41672,-3.74034 -0.92605,-5.69578 -2.28019,-8.75424 -7.65723,-15.94998 -14.37395,-19.2357 -3.15877,-1.54523 -4.22507,-1.75568 -8.7,-1.71707 -7.2865,0.0629 -11.1273,1.67079 -16.24556,6.80113 -2.3939,2.39954 -4.57523,5.29424 -5.54664,7.36061 -1.73569,3.69209 -3.38475,9.90751 -3.39893,12.81075 -0.0128,2.61877 -1.52215,4.48351 -3.62906,4.48351 -1.19582,0 -2.057,-0.46527 -2.71229,-1.46537 z m 68.47534,0.52251 c -1.28729,-1.28729 -1.19779,-5.05655 0.25669,-10.81116 1.78204,-7.05058 4.89173,-12.88422 9.43585,-17.70122 2.90407,-3.07847 5.08937,-4.73395 8.42553,-6.38276 4.07347,-2.01322 5.06275,-2.24865 10.33953,-2.4606 6.33764,-0.25455 10.45918,0.59378 15.64021,3.21921 3.75286,1.90172 8.9599,6.7535 11.74844,10.94689 3.16049,4.75274 5.6439,12.00679 6.04887,17.66884 0.375,5.24281 -0.16682,6.46366 -2.86859,6.46366 -2.1192,0 -3.56632,-1.41197 -3.57981,-3.49286 -0.006,-0.88392 -0.39639,-3.42848 -0.86812,-5.65457 -1.94815,-9.19312 -7.84434,-17.37588 -14.85224,-20.61201 -3.23971,-1.49604 -4.48567,-1.73812 -8.86922,-1.72321 -4.277,0.0146 -5.67418,0.28344 -8.65808,1.66628 -4.67314,2.1657 -8.12458,5.05598 -10.68725,8.94962 -2.74907,4.17686 -4.53913,9.14811 -5.32139,14.77826 -0.35065,2.52367 -0.91714,4.92599 -1.25887,5.33849 -0.86995,1.05008 -3.80333,0.93536 -4.93155,-0.19286 z m 136.11246,-0.54111 c -0.7462,-1.13886 -0.87726,-2.22029 -0.56351,-4.65 0.72095,-5.58321 2.15211,-10.25106 4.57093,-14.90852 2.81622,-5.42264 7.17876,-10.489 11.32026,-13.1466 8.28147,-5.3142 20.04803,-5.61459 29.03271,-0.74116 4.27673,2.31976 8.916,6.75908 11.74552,11.23932 3.08453,4.884 5.45726,11.91184 5.87168,17.39142 0.26469,3.49989 0.14026,4.44062 -0.69827,5.27915 -1.33431,1.33431 -3.49626,1.29926 -4.74165,-0.0769 -0.54615,-0.60349 -0.99698,-2.02099 -1.00186,-3.15 -0.0155,-3.60032 -1.74992,-9.59885 -4.02971,-13.93731 -4.26612,-8.11844 -10.91756,-12.91496 -18.67962,-13.47033 -9.24309,-0.66134 -17.38599,4.01747 -22.72045,13.05488 -1.76853,2.99617 -3.0833,7.22617 -3.85158,12.39176 -0.36638,2.4634 -1.05525,4.86801 -1.53082,5.34357 -1.35175,1.35175 -3.62765,1.05336 -4.72363,-0.6193 z M 306.68048,680.91791 c -1.82343,-0.92603 -2.87945,-2.02302 -3.82224,-3.97056 -2.03802,-4.21001 -0.92683,-8.14115 3.16466,-11.19589 1.06597,-0.79586 2.52391,-1.1563 4.67711,-1.1563 3.3589,0 5.24162,0.99433 7.42831,3.92317 1.64497,2.20326 1.64497,7.02732 0,9.23058 -3.09497,4.14538 -7.25675,5.29744 -11.44784,3.169 z m 59.097,0.5275 c -2.07855,-0.76027 -2.64957,-2.55453 -1.4134,-4.44117 l 0.9636,-1.47062 12.79317,0 c 11.84779,0 12.87012,0.085 13.83438,1.15052 0.57267,0.63279 0.95201,1.77353 0.843,2.53498 -0.35823,2.50208 -2.34761,2.89976 -14.29822,2.85829 -6.105,-0.0212 -11.83014,-0.30559 -12.72253,-0.632 z m 145.33248,-0.42265 c -2.83645,-1.52121 -4.28581,-3.65439 -4.64439,-6.83566 -0.59339,-5.26457 3.26037,-9.65692 8.46707,-9.65038 5.15896,0.006 8.76099,3.56454 8.76513,8.65817 0.003,3.38061 -1.83394,6.39271 -4.80972,7.8878 -2.68788,1.35043 -5.18417,1.3312 -7.77809,-0.0599 z m 58.79005,0.337 c -1.84509,-0.93014 -2.24856,-3.136 -0.85522,-4.67562 0.96426,-1.0655 1.98659,-1.15052 13.83438,-1.15052 l 12.79317,0 0.9636,1.47062 c 1.28192,1.95647 0.64769,3.67826 -1.64998,4.47923 -2.7087,0.94426 -23.16759,0.84336 -25.08595,-0.12371 z"
         id="path4463"
         inkscape:connector-curvature="0" />
      <path
         style="fill:#0072bc;fill-opacity:1"
         d="m 197.00001,741.90717 c -3.34914,-1.57938 -5.30518,-3.44249 -6.26003,-5.96261 -0.42921,-1.13281 -0.63997,-14.4308 -0.63997,-40.3798 0,-42.0524 -0.14566,-40.18477 3.39643,-43.54931 3.66816,-3.48428 3.64413,-3.48183 34.10357,-3.48183 30.45943,0 30.43541,-0.002 34.10357,3.48183 3.54209,3.36454 3.39643,1.49691 3.39643,43.54931 0,25.949 -0.21076,39.24699 -0.63997,40.3798 -0.95485,2.52012 -2.91088,4.38323 -6.26003,5.96261 l -3,1.41473 -27.6,0 -27.6,0 -3,-1.41473 z m 39.9,-9.63189 c 15.35668,-2.78627 24.1426,-11.51084 20.69161,-20.54712 -3.10886,-8.14045 -14.93585,-13.44069 -29.99161,-13.44069 -15.05576,0 -26.88275,5.30024 -29.99162,13.44069 -3.41729,8.94806 5.2951,17.71416 20.39162,20.5173 5.53938,1.02856 13.3277,1.04085 18.9,0.0298 z m -18,-6.0374 c -4.89951,-0.98364 -8.58325,-2.4247 -11.84922,-4.63534 -3.08463,-2.0879 -4.57312,-4.69073 -4.04849,-7.07934 0.20812,-0.94756 1.46193,-2.70175 2.78625,-3.8982 4.60189,-4.15753 11.9518,-6.27054 21.81146,-6.27054 9.85966,0 17.20957,2.11301 21.81146,6.27054 2.85652,2.5807 3.54587,4.88384 2.22581,7.43654 -1.07666,2.08203 -4.8102,4.7851 -8.73727,6.32574 -6.67944,2.62044 -16.42316,3.37176 -24,1.8506 z m 16.72115,-34.17584 c 10.02855,-2.6692 17.98085,-10.12494 21.45523,-20.11551 1.59354,-4.58224 1.98439,-9.71427 0.84443,-11.08784 -1.13172,-1.36364 -3.45858,-1.14072 -4.43554,0.42493 -0.46332,0.7425 -0.9993,2.78834 -1.19105,4.54631 -0.49008,4.49285 -2.80249,9.14985 -6.46756,13.02512 -5.56352,5.88261 -14.97743,9.06201 -22.62226,7.6403 -5.28778,-0.98336 -9.84425,-3.47082 -13.63211,-7.44199 -3.73968,-3.92067 -6.19052,-8.82609 -6.6851,-13.38041 -0.18153,-1.67163 -0.70914,-3.64683 -1.17246,-4.38933 -0.97696,-1.56565 -3.30382,-1.78857 -4.43554,-0.42493 -1.07186,1.29152 -0.78692,6.07599 0.63629,10.68381 3.07099,9.9427 11.79269,17.82848 22.61961,20.45166 4.5597,1.10474 11.08021,1.13408 15.08606,0.0679 z m -2.62009,-14.37394 c 3.36148,-2.20253 4.52778,-8.04415 2.34894,-11.76511 -1.88188,-3.21382 -4.03038,-4.44651 -7.75,-4.44651 -3.71962,0 -5.86812,1.23269 -7.75,4.44651 -2.18743,3.73563 -1.01166,9.56316 2.37752,11.78383 3.15163,2.06504 7.60513,2.0573 10.77354,-0.0187 z m 67.54405,56.62862 c -9.64246,-2.02059 -16.58327,-5.97497 -19.63876,-11.18878 -3.00228,-5.123 -1.72177,-11.48584 3.17714,-15.78714 3.09595,-2.71828 9.83852,-5.7948 15.10574,-6.89247 6.34895,-1.32311 17.21808,-1.19224 23.36461,0.28134 8.68327,2.08173 15.16884,6.19306 17.55937,11.13124 1.04325,2.15505 1.27189,3.49011 1.07171,6.2576 -0.19114,2.6425 -0.6938,4.15395 -2.0197,6.07306 -2.31282,3.34757 -7.69356,6.77205 -13.71817,8.73069 -4.14381,1.34718 -6.1093,1.60302 -13.54705,1.7633 -4.785,0.10312 -9.8947,-0.0629 -11.35489,-0.36884 z m 18.22051,-6.85771 c 2.51414,-0.48104 6.18608,-1.59934 8.15986,-2.48511 3.98128,-1.7867 7.77452,-5.49893 7.77452,-7.6085 0,-1.49162 -1.37353,-3.74139 -3.28154,-5.375 -2.20593,-1.88867 -7.14339,-3.9325 -11.84316,-4.90238 -8.98035,-1.85327 -19.30209,-0.80249 -26.71404,2.71956 -3.94922,1.87661 -6.76126,4.81392 -6.76126,7.06247 0,2.14885 1.56239,4.54686 4.02362,6.17563 2.82839,1.87174 8.49203,3.97942 12.48803,4.64731 4.79314,0.80114 11.23126,0.70789 16.15397,-0.23398 z m 184.83438,6.5462 c -2.31,-0.49664 -6.40722,-1.97895 -9.10493,-3.29402 -9.28462,-4.52602 -13.00643,-11.41646 -9.87246,-18.27757 1.26384,-2.76691 5.51026,-6.88019 8.875,-8.59675 1.2743,-0.6501 4.33865,-1.81678 6.80965,-2.59263 3.95668,-1.24231 5.67398,-1.41062 14.39274,-1.41062 8.71876,0 10.43606,0.16831 14.39274,1.41062 5.93013,1.86194 8.562,3.25629 11.85748,6.282 3.19362,2.9322 4.92343,6.34281 4.92343,9.70738 0,6.89787 -6.95889,13.26279 -17.77684,16.25954 -5.01263,1.38857 -19.05465,1.68209 -24.49681,0.51205 z m 22.64761,-7.18519 c 7.57925,-1.93074 13.62284,-6.89784 12.74076,-10.47138 -0.8182,-3.31477 -5.53799,-6.64547 -12.28837,-8.67177 -1.815,-0.54482 -5.865,-1.14893 -9,-1.34247 -9.54689,-0.58937 -18.32033,1.42422 -23.52661,5.39958 -1.36831,1.0448 -2.82952,2.73834 -3.24715,3.76341 -0.64545,1.58429 -0.60687,2.16914 0.25722,3.9 1.81209,3.62979 8.11806,6.89393 16.13094,8.34981 4.18432,0.76026 14.24264,0.26769 18.93321,-0.92718 z M 300.20951,693.73796 c -5.30544,-1.13672 -11.86533,-4.1979 -15.16373,-7.07619 -3.72999,-3.2549 -5.62921,-6.84609 -5.98863,-11.32378 -0.23969,-2.98598 -0.0356,-4.36451 1.00408,-6.78125 1.62611,-3.77999 5.85507,-7.98345 10.44971,-10.38671 4.16953,-2.1809 7.24119,-2.40754 8.20564,-0.60546 1.31275,2.45291 0.49152,3.73509 -3.91657,6.11485 -2.31,1.24708 -5.05963,3.18599 -6.11029,4.30867 -1.05067,1.12269 -2.23377,3.12091 -2.62913,4.44051 -0.63985,2.13561 -0.56969,2.70733 0.63845,5.20302 1.75919,3.634 5.55038,6.37701 11.70097,8.46593 4.03688,1.37105 5.84929,1.63511 11.4,1.66097 7.04312,0.0328 11.27252,-0.87036 16.47437,-3.51805 3.55912,-1.81155 7.08284,-5.394 7.77645,-7.90604 0.75116,-2.72046 -0.19182,-5.82838 -2.54467,-8.38689 -1.04838,-1.14003 -3.93115,-3.07378 -6.40615,-4.29724 -3.8491,-1.9027 -4.5282,-2.47024 -4.69498,-3.92363 -0.11518,-1.00387 0.22977,-2.1685 0.843,-2.84611 0.93518,-1.03336 1.94051,-1.14694 10.15198,-1.14694 8.06752,0 9.22804,0.12599 10.10701,1.09724 0.54615,0.60349 0.99299,1.54849 0.99299,2.1 0,1.59409 -2.23243,3.40276 -4.2,3.40276 -0.99,0 -1.8,0.12711 -1.8,0.28246 0,0.15535 0.80192,1.43785 1.78204,2.85 2.27381,3.27609 3.30871,7.23731 2.79163,10.68541 -1.60811,10.72366 -14.97229,18.63901 -31.27367,18.5228 -2.97,-0.0212 -7.28573,-0.44252 -9.5905,-0.93633 z m 204.6414,0.0998 c -5.48925,-1.14448 -12.21166,-4.39805 -15.66607,-7.58221 -3.94563,-3.63696 -5.68812,-7.33967 -5.67165,-12.05202 0.0166,-4.72891 1.43893,-7.99347 4.9841,-11.43897 3.25369,-3.16222 9.21221,-6.43097 11.72287,-6.43097 1.30371,0 2.13753,0.43549 2.81578,1.47062 1.51714,2.31545 0.61059,3.74812 -3.7024,5.85104 -4.13891,2.01806 -8.34558,6.02214 -8.97923,8.54682 -0.64405,2.5661 0.30209,5.67979 2.44747,8.05447 3.78728,4.19207 10.52414,6.85684 19.22417,7.60415 5.11811,0.43963 12.7689,-0.84161 17.23502,-2.88627 3.70628,-1.69679 7.32664,-4.6963 8.56969,-7.1001 1.24642,-2.41031 1.06841,-5.30177 -0.48429,-7.86648 -1.61443,-2.66668 -4.4474,-4.88545 -8.64555,-6.77118 -3.64129,-1.6356 -4.78751,-3.24894 -3.7321,-5.25307 0.39102,-0.7425 1.00801,-1.54837 1.37111,-1.79081 0.3631,-0.24245 4.77146,-0.44495 9.79635,-0.45 8.94883,-0.009 9.15523,0.0199 10.06594,1.40982 0.68623,1.04733 0.78048,1.8117 0.35979,2.91817 -0.61831,1.62629 -1.74659,2.26282 -4.01097,2.26282 -0.79801,0 -1.44602,0.2025 -1.44001,0.45 0.006,0.2475 0.79594,1.60825 1.7554,3.02389 2.31663,3.41804 3.22182,7.70929 2.39986,11.37702 -0.79575,3.5508 -2.29605,5.98095 -5.52015,8.94142 -3.58472,3.2916 -6.04022,4.68039 -11.54603,6.53025 -3.88793,1.30629 -6.1681,1.65395 -12,1.82969 -4.75306,0.14322 -8.61008,-0.077 -11.3491,-0.6481 z m -157.28338,-1.16954 c -0.83255,-1.27063 -0.86789,-2.07399 -0.26588,-6.04544 1.40223,-9.2506 4.95265,-16.63329 10.85015,-22.56167 2.66992,-2.6839 5.29737,-4.62241 8.1,-5.97613 3.72522,-1.79933 4.79062,-2.02741 10.44821,-2.2367 5.29976,-0.19607 6.91556,-0.0253 10.1771,1.07531 5.31141,1.79242 8.70452,3.89161 12.62126,7.80836 5.42815,5.42815 9.31836,14.04067 10.50983,23.26767 0.51482,3.98692 -0.63606,6.13397 -3.288,6.13397 -2.19448,0 -3.62019,-1.89328 -3.62019,-4.80745 0,-1.17723 -0.41672,-3.74034 -0.92605,-5.69578 -2.28019,-8.75424 -7.65723,-15.94998 -14.37395,-19.2357 -3.15877,-1.54523 -4.22507,-1.75568 -8.7,-1.71707 -7.2865,0.0629 -11.1273,1.67079 -16.24556,6.80113 -2.3939,2.39954 -4.57523,5.29424 -5.54664,7.36061 -1.73569,3.69209 -3.38475,9.90751 -3.39893,12.81075 -0.0128,2.61877 -1.52215,4.48351 -3.62906,4.48351 -1.19582,0 -2.057,-0.46527 -2.71229,-1.46537 z m 68.47534,0.52251 c -1.28729,-1.28729 -1.19779,-5.05655 0.25669,-10.81116 1.78204,-7.05058 4.89173,-12.88422 9.43585,-17.70122 2.90407,-3.07847 5.08937,-4.73395 8.42553,-6.38276 4.07347,-2.01322 5.06275,-2.24865 10.33953,-2.4606 6.33764,-0.25455 10.45918,0.59378 15.64021,3.21921 3.75286,1.90172 8.9599,6.7535 11.74844,10.94689 3.16049,4.75274 5.6439,12.00679 6.04887,17.66884 0.375,5.24281 -0.16682,6.46366 -2.86859,6.46366 -2.1192,0 -3.56632,-1.41197 -3.57981,-3.49286 -0.006,-0.88392 -0.39639,-3.42848 -0.86812,-5.65457 -1.94815,-9.19312 -7.84434,-17.37588 -14.85224,-20.61201 -3.23971,-1.49604 -4.48567,-1.73812 -8.86922,-1.72321 -4.277,0.0146 -5.67418,0.28344 -8.65808,1.66628 -4.67314,2.1657 -8.12458,5.05598 -10.68725,8.94962 -2.74907,4.17686 -4.53913,9.14811 -5.32139,14.77826 -0.35065,2.52367 -0.91714,4.92599 -1.25887,5.33849 -0.86995,1.05008 -3.80333,0.93536 -4.93155,-0.19286 z m 136.11246,-0.54111 c -0.7462,-1.13886 -0.87726,-2.22029 -0.56351,-4.65 0.72095,-5.58321 2.15211,-10.25106 4.57093,-14.90852 2.81622,-5.42264 7.17876,-10.489 11.32026,-13.1466 8.28147,-5.3142 20.04803,-5.61459 29.03271,-0.74116 4.27673,2.31976 8.916,6.75908 11.74552,11.23932 3.08453,4.884 5.45726,11.91184 5.87168,17.39142 0.26469,3.49989 0.14026,4.44062 -0.69827,5.27915 -1.33431,1.33431 -3.49626,1.29926 -4.74165,-0.0769 -0.54615,-0.60349 -0.99698,-2.02099 -1.00186,-3.15 -0.0155,-3.60032 -1.74992,-9.59885 -4.02971,-13.93731 -4.26612,-8.11844 -10.91756,-12.91496 -18.67962,-13.47033 -9.24309,-0.66134 -17.38599,4.01747 -22.72045,13.05488 -1.76853,2.99617 -3.0833,7.22617 -3.85158,12.39176 -0.36638,2.4634 -1.05525,4.86801 -1.53082,5.34357 -1.35175,1.35175 -3.62765,1.05336 -4.72363,-0.6193 z"
         id="path4461"
         inkscape:connector-curvature="0" />
    </g>
  </g>
</svg>
